<svg width="110" height="110" viewBox="0 0 110 110" fill="none" xmlns="http://www.w3.org/2000/svg">
<path d="M68.75 41.25H82.5M68.75 55H82.5M68.75 68.75H82.5M55 73.3333C53.625 70.5833 50.4167 68.75 47.6667 68.75H34.8333C31.625 68.75 28.875 70.5833 27.5 73.3333M18.3333 22.9167H91.6667C94.4167 22.9167 96.25 24.75 96.25 27.5V82.5C96.25 85.25 94.4167 87.0833 91.6667 87.0833H18.3333C17.1178 87.0833 15.952 86.6005 15.0924 85.7409C14.2329 84.8814 13.75 83.7156 13.75 82.5V27.5C13.75 24.75 15.5833 22.9167 18.3333 22.9167ZM50.4167 45.8333C50.4167 48.2645 49.4509 50.5961 47.7318 52.3151C46.0127 54.0342 43.6812 55 41.25 55C38.8188 55 36.4873 54.0342 34.7682 52.3151C33.0491 50.5961 32.0833 48.2645 32.0833 45.8333C32.0833 43.4022 33.0491 41.0706 34.7682 39.3515C36.4873 37.6324 38.8188 36.6667 41.25 36.6667C43.6812 36.6667 46.0127 37.6324 47.7318 39.3515C49.4509 41.0706 50.4167 43.4022 50.4167 45.8333Z" stroke="white" stroke-width="4" stroke-linecap="round" stroke-linejoin="round"/>
<circle cx="41" cy="46" r="9" fill="#F5CD15" stroke="white" stroke-width="2"/>
</svg>
